<svg viewBox="0 0 32 32" fill="none" xmlns="http://www.w3.org/2000/svg">
<path fill-rule="evenodd" clip-rule="evenodd" d="M11.9999 29.3333C11.9999 29.687 11.8594 30.0261 11.6094 30.2761C11.3593 30.5262 11.0202 30.6667 10.6666 30.6667C10.313 30.6667 9.97382 30.5262 9.72378 30.2761C9.47373 30.0261 9.33325 29.687 9.33325 29.3333C9.33325 28.9797 9.47373 28.6406 9.72378 28.3905C9.97382 28.1405 10.313 28 10.6666 28C11.0202 28 11.3593 28.1405 11.6094 28.3905C11.8594 28.6406 11.9999 28.9797 11.9999 29.3333ZM17.3333 29.3333C17.3333 29.687 17.1928 30.0261 16.9427 30.2761C16.6927 30.5262 16.3535 30.6667 15.9999 30.6667C15.6463 30.6667 15.3072 30.5262 15.0571 30.2761C14.8071 30.0261 14.6666 29.687 14.6666 29.3333C14.6666 28.9797 14.8071 28.6406 15.0571 28.3905C15.3072 28.1405 15.6463 28 15.9999 28C16.3535 28 16.6927 28.1405 16.9427 28.3905C17.1928 28.6406 17.3333 28.9797 17.3333 29.3333ZM21.3333 30.6667C21.6869 30.6667 22.026 30.5262 22.2761 30.2761C22.5261 30.0261 22.6666 29.687 22.6666 29.3333C22.6666 28.9797 22.5261 28.6406 22.2761 28.3905C22.026 28.1405 21.6869 28 21.3333 28C20.9796 28 20.6405 28.1405 20.3904 28.3905C20.1404 28.6406 19.9999 28.9797 19.9999 29.3333C19.9999 29.687 20.1404 30.0261 20.3904 30.2761C20.6405 30.5262 20.9796 30.6667 21.3333 30.6667Z"/>
<path fill-rule="evenodd" clip-rule="evenodd" d="M11.9999 2.66668C11.9999 3.0203 11.8594 3.35944 11.6094 3.60949C11.3593 3.85953 11.0202 4.00001 10.6666 4.00001C10.313 4.00001 9.97383 3.85953 9.72378 3.60949C9.47373 3.35944 9.33325 3.0203 9.33325 2.66668C9.33325 2.31305 9.47373 1.97392 9.72378 1.72387C9.97383 1.47382 10.313 1.33334 10.6666 1.33334C11.0202 1.33334 11.3593 1.47382 11.6094 1.72387C11.8594 1.97392 11.9999 2.31305 11.9999 2.66668ZM17.3333 2.66668C17.3333 3.0203 17.1928 3.35944 16.9427 3.60949C16.6927 3.85953 16.3535 4.00001 15.9999 4.00001C15.6463 4.00001 15.3072 3.85953 15.0571 3.60949C14.8071 3.35944 14.6666 3.0203 14.6666 2.66668C14.6666 2.31305 14.8071 1.97392 15.0571 1.72387C15.3072 1.47382 15.6463 1.33334 15.9999 1.33334C16.3535 1.33334 16.6927 1.47382 16.9427 1.72387C17.1928 1.97392 17.3333 2.31305 17.3333 2.66668ZM21.3333 4.00001C21.6869 4.00001 22.026 3.85953 22.2761 3.60949C22.5261 3.35944 22.6666 3.0203 22.6666 2.66668C22.6666 2.31305 22.5261 1.97392 22.2761 1.72387C22.026 1.47382 21.6869 1.33334 21.3333 1.33334C20.9796 1.33334 20.6405 1.47382 20.3904 1.72387C20.1404 1.97392 19.9999 2.31305 19.9999 2.66668C19.9999 3.0203 20.1404 3.35944 20.3904 3.60949C20.6405 3.85953 20.9796 4.00001 21.3333 4.00001ZM11.9999 29.3333C11.9999 29.687 11.8594 30.0261 11.6094 30.2762C11.3593 30.5262 11.0202 30.6667 10.6666 30.6667C10.313 30.6667 9.97383 30.5262 9.72378 30.2762C9.47373 30.0261 9.33325 29.687 9.33325 29.3333C9.33325 28.9797 9.47373 28.6406 9.72378 28.3905C9.97383 28.1405 10.313 28 10.6666 28C11.0202 28 11.3593 28.1405 11.6094 28.3905C11.8594 28.6406 11.9999 28.9797 11.9999 29.3333ZM17.3333 29.3333C17.3333 29.687 17.1928 30.0261 16.9427 30.2762C16.6927 30.5262 16.3535 30.6667 15.9999 30.6667C15.6463 30.6667 15.3072 30.5262 15.0571 30.2762C14.8071 30.0261 14.6666 29.687 14.6666 29.3333C14.6666 28.9797 14.8071 28.6406 15.0571 28.3905C15.3072 28.1405 15.6463 28 15.9999 28C16.3535 28 16.6927 28.1405 16.9427 28.3905C17.1928 28.6406 17.3333 28.9797 17.3333 29.3333ZM21.3333 30.6667C21.6869 30.6667 22.026 30.5262 22.2761 30.2762C22.5261 30.0261 22.6666 29.687 22.6666 29.3333C22.6666 28.9797 22.5261 28.6406 22.2761 28.3905C22.026 28.1405 21.6869 28 21.3333 28C20.9796 28 20.6405 28.1405 20.3904 28.3905C20.1404 28.6406 19.9999 28.9797 19.9999 29.3333C19.9999 29.687 20.1404 30.0261 20.3904 30.2762C20.6405 30.5262 20.9796 30.6667 21.3333 30.6667ZM30.6666 21.3333C30.6666 20.9797 30.5261 20.6406 30.2761 20.3905C30.026 20.1405 29.6869 20 29.3333 20C28.9796 20 28.6405 20.1405 28.3904 20.3905C28.1404 20.6406 27.9999 20.9797 27.9999 21.3333C27.9999 21.687 28.1404 22.0261 28.3904 22.2762C28.6405 22.5262 28.9796 22.6667 29.3333 22.6667C29.6869 22.6667 30.026 22.5262 30.2761 22.2762C30.5261 22.0261 30.6666 21.687 30.6666 21.3333ZM30.6666 16C30.6666 15.6464 30.5261 15.3073 30.2761 15.0572C30.026 14.8072 29.6869 14.6667 29.3333 14.6667C28.9796 14.6667 28.6405 14.8072 28.3904 15.0572C28.1404 15.3073 27.9999 15.6464 27.9999 16C27.9999 16.3536 28.1404 16.6928 28.3904 16.9428C28.6405 17.1929 28.9796 17.3333 29.3333 17.3333C29.6869 17.3333 30.026 17.1929 30.2761 16.9428C30.5261 16.6928 30.6666 16.3536 30.6666 16ZM29.3333 9.33334C29.6869 9.33334 30.026 9.47382 30.2761 9.72387C30.5261 9.97392 30.6666 10.3131 30.6666 10.6667C30.6666 11.0203 30.5261 11.3594 30.2761 11.6095C30.026 11.8595 29.6869 12 29.3333 12C28.9796 12 28.6405 11.8595 28.3904 11.6095C28.1404 11.3594 27.9999 11.0203 27.9999 10.6667C27.9999 10.3131 28.1404 9.97392 28.3904 9.72387C28.6405 9.47382 28.9796 9.33334 29.3333 9.33334ZM2.66659 20C3.02021 20 3.35935 20.1405 3.60939 20.3905C3.85944 20.6406 3.99992 20.9797 3.99992 21.3333C3.99992 21.687 3.85944 22.0261 3.60939 22.2762C3.35935 22.5262 3.02021 22.6667 2.66659 22.6667C2.31296 22.6667 1.97382 22.5262 1.72378 22.2762C1.47373 22.0261 1.33325 21.687 1.33325 21.3333C1.33325 20.9797 1.47373 20.6406 1.72378 20.3905C1.97382 20.1405 2.31296 20 2.66659 20ZM2.66659 14.6667C3.02021 14.6667 3.35935 14.8072 3.60939 15.0572C3.85944 15.3073 3.99992 15.6464 3.99992 16C3.99992 16.3536 3.85944 16.6928 3.60939 16.9428C3.35935 17.1929 3.02021 17.3333 2.66659 17.3333C2.31296 17.3333 1.97382 17.1929 1.72378 16.9428C1.47373 16.6928 1.33325 16.3536 1.33325 16C1.33325 15.6464 1.47373 15.3073 1.72378 15.0572C1.97382 14.8072 2.31296 14.6667 2.66659 14.6667ZM3.99992 10.6667C3.99992 10.3131 3.85944 9.97392 3.60939 9.72387C3.35935 9.47382 3.02021 9.33334 2.66659 9.33334C2.31296 9.33334 1.97382 9.47382 1.72378 9.72387C1.47373 9.97392 1.33325 10.3131 1.33325 10.6667C1.33325 11.0203 1.47373 11.3594 1.72378 11.6095C1.97382 11.8595 2.31296 12 2.66659 12C3.02021 12 3.35935 11.8595 3.60939 11.6095C3.85944 11.3594 3.99992 11.0203 3.99992 10.6667ZM22.6666 8.00001H9.33325C8.97963 8.00001 8.64049 8.14049 8.39044 8.39053C8.14039 8.64058 7.99992 8.97972 7.99992 9.33334V22.6667C7.99992 23.0203 8.14039 23.3594 8.39044 23.6095C8.64049 23.8595 8.97963 24 9.33325 24H22.6666C23.0202 24 23.3593 23.8595 23.6094 23.6095C23.8594 23.3594 23.9999 23.0203 23.9999 22.6667V9.33334C23.9999 8.97972 23.8594 8.64058 23.6094 8.39053C23.3593 8.14049 23.0202 8.00001 22.6666 8.00001ZM9.33325 5.33334C8.27239 5.33334 7.25497 5.75477 6.50483 6.50492C5.75468 7.25506 5.33325 8.27248 5.33325 9.33334V22.6667C5.33325 23.7275 5.75468 24.745 6.50483 25.4951C7.25497 26.2453 8.27239 26.6667 9.33325 26.6667H22.6666C23.7275 26.6667 24.7449 26.2453 25.495 25.4951C26.2452 24.745 26.6666 23.7275 26.6666 22.6667V9.33334C26.6666 8.27248 26.2452 7.25506 25.495 6.50492C24.7449 5.75477 23.7275 5.33334 22.6666 5.33334H9.33325ZM18.6666 13.3333H13.3333V18.6667H18.6666V13.3333ZM11.9999 10.6667C11.2635 10.6667 10.6666 11.2636 10.6666 12V20C10.6666 20.7364 11.2635 21.3333 11.9999 21.3333H19.9999C20.7363 21.3333 21.3333 20.7364 21.3333 20V12C21.3333 11.2636 20.7363 10.6667 19.9999 10.6667H11.9999Z"/>
</svg>
