<svg viewBox="0 0 32 32" fill="none" xmlns="http://www.w3.org/2000/svg">
<g clip-path="url(#clip0)">
<path d="M4.82903 19.8657C3.64167 20.0142 2.66675 19.03 2.66675 17.8333C2.66675 16.6367 3.64396 15.6856 4.82462 15.4908C10.3 14.5877 14.5878 10.2999 15.4909 4.82454C15.6857 3.64388 16.6368 2.66667 17.8334 2.66667C19.03 2.66667 20.0143 3.64158 19.8658 4.82895C18.8863 12.6594 12.6595 18.8863 4.82903 19.8657ZM4.81925 13.2837C3.6467 13.5225 2.66675 12.53 2.66675 11.3333C2.66675 10.1367 3.66296 9.20298 4.79555 8.81679C6.68693 8.17185 8.17193 6.68685 8.81687 4.79546C9.20307 3.66288 10.1368 2.66667 11.3334 2.66667C12.53 2.66667 13.5226 3.64662 13.2838 4.81917C12.4202 9.05943 9.05951 12.4202 4.81925 13.2837ZM4.7443 6.46951C3.69416 7.04318 2.66675 6.02995 2.66675 4.83333C2.66675 3.63671 3.6368 2.66667 4.83341 2.66667C6.03003 2.66667 7.04326 3.69408 6.46959 4.74422C6.27336 5.10344 6.02553 5.43615 5.73088 5.7308C5.43623 6.02544 5.10352 6.27328 4.7443 6.46951Z"/>
</g>
<g clip-path="url(#clip1)">
<path d="M28.5045 13.4676C29.6918 13.3191 30.6667 14.3034 30.6667 15.5C30.6667 16.6966 29.6895 17.6478 28.5089 17.8425C23.0335 18.7456 18.7457 23.0334 17.8426 28.5088C17.6478 29.6895 16.6967 30.6667 15.5001 30.6667C14.3035 30.6667 13.3192 29.6918 13.4677 28.5044C14.4471 20.6739 20.674 14.4471 28.5045 13.4676ZM28.5142 20.0496C29.6868 19.8108 30.6667 20.8034 30.6667 22C30.6667 23.1966 29.6705 24.1304 28.5379 24.5166C26.6466 25.1615 25.1616 26.6465 24.5166 28.5379C24.1304 29.6705 23.1967 30.6667 22.0001 30.6667C20.8035 30.6667 19.8109 29.6867 20.0497 28.5142C20.9133 24.2739 24.274 20.9132 28.5142 20.0496ZM28.5892 26.8638C29.6393 26.2902 30.6667 27.3034 30.6667 28.5C30.6667 29.6966 29.6967 30.6667 28.5001 30.6667C27.3035 30.6667 26.2902 29.6393 26.8639 28.5891C27.0601 28.2299 27.308 27.8972 27.6026 27.6025C27.8973 27.3079 28.23 27.0601 28.5892 26.8638Z"/>
</g>
<defs>
<clipPath id="clip0">
<rect width="18.6667" height="18.6667" transform="matrix(1 0 0 -1 2.66675 21.3333)"/>
</clipPath>
<clipPath id="clip1">
<rect width="18.6667" height="18.6667" transform="matrix(-1 0 0 1 30.6667 12)"/>
</clipPath>
</defs>
</svg>
