<svg viewBox="0 0 32 32" fill="none" xmlns="http://www.w3.org/2000/svg">
<path d="M26.6666 10.6667C26.6666 11.403 26.0696 12 25.3333 12H19.9999V28C19.9999 28.7364 19.403 29.3333 18.6666 29.3333C17.9302 29.3333 17.3333 28.7364 17.3333 28V22.6667C17.3333 21.9303 16.7363 21.3333 15.9999 21.3333C15.2635 21.3333 14.6666 21.9303 14.6666 22.6667V28C14.6666 28.7364 14.0696 29.3333 13.3333 29.3333C12.5969 29.3333 11.9999 28.7364 11.9999 28V12H6.66658C5.9302 12 5.33325 11.403 5.33325 10.6667C5.33325 9.93028 5.93021 9.33332 6.66659 9.33332H25.3333C26.0696 9.33332 26.6666 9.93028 26.6666 10.6667ZM15.9999 2.66666C16.7072 2.66666 17.3854 2.94761 17.8855 3.4477C18.3856 3.9478 18.6666 4.62608 18.6666 5.33332C18.6666 6.04057 18.3856 6.71884 17.8855 7.21894C17.3854 7.71904 16.7072 7.99999 15.9999 7.99999C15.2927 7.99999 14.6144 7.71904 14.1143 7.21894C13.6142 6.71884 13.3333 6.04057 13.3333 5.33332C13.3333 3.85332 14.5199 2.66666 15.9999 2.66666Z" />
</svg>
