<svg viewBox="0 0 32 32" fill="none" xmlns="http://www.w3.org/2000/svg">
<path d="M25.8804 14.4732H28.6625C28.5776 13.047 28.2639 11.6438 27.7333 10.3175L25.2906 11.7297C25.6022 12.5973 25.8067 13.5165 25.8804 14.4732ZM21.0353 3.22473C19.6834 2.58007 18.2317 2.17036 16.7425 2.01311V4.82768C17.7429 4.9584 18.7193 5.23279 19.6415 5.64238L21.0353 3.22473ZM24.0136 9.25077L26.4354 7.85115C25.6095 6.63165 24.5887 5.55654 23.414 4.66892L22.0146 7.09493C22.7776 7.71722 23.4504 8.4428 24.0136 9.25077ZM15.35 25.8917C12.5462 25.8917 9.85711 24.7766 7.87446 22.7916C5.89181 20.8067 4.77797 18.1146 4.77797 15.3074C4.77797 10.3648 8.16481 6.22354 12.7401 5.06078C13.4294 4.8856 13.9604 4.29464 13.9604 3.58342C13.9604 2.7429 13.2296 2.08093 12.4095 2.26541C6.44836 3.60643 1.99585 8.93582 1.99585 15.3074C1.99567 17.0634 2.34099 18.8022 3.01211 20.4245C3.68323 22.0468 4.66699 23.5209 5.9072 24.7625C7.14742 26.0042 8.6198 26.9891 10.2403 27.661C11.8607 28.3328 13.5975 28.6786 15.3514 28.6784C21.4956 28.6784 26.659 24.5185 28.2118 18.8595C28.44 18.0277 27.7734 17.2586 26.9108 17.2586C26.2296 17.2586 25.655 17.7482 25.4565 18.3998C24.1354 22.7355 20.1132 25.8917 15.35 25.8917Z"/>
<circle cx="15.5" cy="15.5" r="4.5"/>
</svg>
