<svg viewBox="0 0 32 32" fill="none" xmlns="http://www.w3.org/2000/svg">
<path d="M7.1067 21.2386C6.81318 19.9576 6.66558 18.6475 6.6667 17.3333C6.6667 10.5493 10.5374 4.75198 16 2.42398C21.4627 4.75198 25.3334 10.5493 25.3334 17.3333C25.3334 18.68 25.1814 19.988 24.8934 21.2386L27.5867 23.6333C27.7026 23.7364 27.779 23.8767 27.8026 24.03C27.8262 24.1834 27.7956 24.3401 27.716 24.4733L24.4387 29.9346C24.3865 30.0214 24.3153 30.0952 24.2304 30.1503C24.1454 30.2054 24.0491 30.2405 23.9486 30.2528C23.8481 30.2652 23.7461 30.2545 23.6504 30.2215C23.5546 30.1886 23.4676 30.1342 23.396 30.0626L20.3907 27.0573C20.1407 26.8072 19.8016 26.6667 19.448 26.6666H12.552C12.1984 26.6667 11.8594 26.8072 11.6094 27.0573L8.60404 30.0626C8.53243 30.1342 8.44546 30.1886 8.34972 30.2215C8.25398 30.2545 8.152 30.2652 8.0515 30.2528C7.951 30.2405 7.85464 30.2054 7.76971 30.1503C7.68479 30.0952 7.61354 30.0214 7.56137 29.9346L4.28404 24.4746C4.20414 24.3413 4.17333 24.1843 4.19695 24.0307C4.22057 23.877 4.29712 23.7365 4.41337 23.6333L7.1067 21.2386ZM16 17.3333C16.7073 17.3333 17.3856 17.0524 17.8857 16.5523C18.3858 16.0522 18.6667 15.3739 18.6667 14.6666C18.6667 13.9594 18.3858 13.2811 17.8857 12.781C17.3856 12.2809 16.7073 12 16 12C15.2928 12 14.6145 12.2809 14.1144 12.781C13.6143 13.2811 13.3334 13.9594 13.3334 14.6666C13.3334 15.3739 13.6143 16.0522 14.1144 16.5523C14.6145 17.0524 15.2928 17.3333 16 17.3333Z" />
</svg>
