<svg viewBox="0 0 32 32" fill="none" xmlns="http://www.w3.org/2000/svg">
    <path d="M22.411 6.05581C28.0311 9.53188 29.7889 16.9685 26.3172 22.5816C23.1143 27.76 16.5351 29.6492 11.1224 27.1814C10.3633 26.8354 10.1504 25.8918 10.5963 25.1866C11.036 24.4914 11.9507 24.2938 12.7111 24.6075C16.7202 26.2614 21.4333 24.8247 23.7881 21.0174C26.4077 16.782 25.0991 11.2459 20.8584 8.62303C18.7381 7.3116 16.3307 7.09249 14.0833 7.64255L14.5359 9.55029L7.48389 7.40573L12.8299 2.34702L13.3802 4.6679C16.3557 3.9685 19.6264 4.33357 22.4365 6.07161L22.411 6.05581Z"/>
    <path d="M16.5295 11.9814H16.6452C18.9528 11.9814 20.8235 13.8522 20.8235 16.1598C20.8235 18.4674 18.9528 20.3381 16.6452 20.3381H16.5295C14.2219 20.3381 12.3512 18.4674 12.3512 16.1598C12.3512 13.8522 14.2219 11.9814 16.5295 11.9814Z"/>
    </svg>
    