<svg viewBox="0 0 32 32" fill="none" xmlns="http://www.w3.org/2000/svg">
<path d="M26.6667 20.4134L29.2 17.88C30.24 16.84 30.24 15.1467 29.2 14.1067L26.6667 11.5867V8.00002C26.6667 6.53335 25.4667 5.33335 24 5.33335H20.4134L17.88 2.80002C16.84 1.76002 15.1467 1.76002 14.1067 2.80002L11.5867 5.33335H8.00002C6.53335 5.33335 5.33335 6.53335 5.33335 8.00002V11.5867L2.80002 14.12C1.76002 15.16 1.76002 16.8534 2.80002 17.8934L5.33335 20.4267V24C5.33335 25.4667 6.53335 26.6667 8.00002 26.6667H11.5867L14.12 29.2C15.16 30.24 16.8534 30.24 17.8934 29.2L20.4267 26.6667H24C25.4667 26.6667 26.6667 25.4667 26.6667 24V20.4134ZM16 22.5334V9.46669C16 8.65335 16.7334 7.98669 17.5334 8.14669C21.2134 8.86669 24 12.1067 24 16C24 19.8934 21.2134 23.1334 17.5334 23.8534C16.7334 24.0134 16 23.3467 16 22.5334Z"/>
</svg>
